<?xml version="1.0" standalone="no"?>
<!DOCTYPE svg PUBLIC "-//W3C//DTD SVG 20010904//EN"
 "http://www.w3.org/TR/2001/REC-SVG-20010904/DTD/svg10.dtd">
<svg version="1.0" xmlns="http://www.w3.org/2000/svg"
 width="2559.000000pt" height="853.000000pt" viewBox="0 0 2559.000000 853.000000"
 preserveAspectRatio="xMidYMid meet">

<g transform="translate(0.000000,853.000000) scale(0.100000,-0.100000)"
fill="#000000" stroke="none">
<path d="M16395 5301 c-15 -69 -157 -175 -301 -225 -120 -42 -348 -61 -506
-42 l-68 8 45 55 c47 57 50 69 23 86 -26 17 -65 -1 -126 -58 -42 -39 -68 -55
-87 -55 -15 0 -106 13 -203 29 -253 43 -364 53 -557 53 -330 -1 -534 -66 -690
-218 -223 -218 -181 -569 82 -691 67 -31 123 -43 123 -25 0 4 -21 15 -48 24
-73 26 -136 73 -175 131 -45 65 -61 130 -54 211 23 247 246 425 601 482 173
28 687 9 879 -32 28 -6 27 -7 -60 -87 -48 -45 -172 -162 -275 -259 -104 -97
-228 -213 -277 -256 -446 -400 -945 -679 -1341 -748 -204 -35 -380 10 -380 99
0 21 15 44 59 90 69 74 81 94 81 142 0 73 -89 120 -179 95 -115 -31 -190 -181
-147 -294 20 -53 89 -119 150 -146 104 -44 323 -51 476 -15 341 81 738 286
1070 550 119 95 376 325 557 497 76 73 156 148 177 167 l40 36 -31 -40 c-43
-56 -306 -453 -448 -675 -64 -102 -151 -233 -191 -292 -78 -113 -89 -149 -53
-168 18 -10 33 0 132 93 345 321 736 661 1037 902 249 200 255 202 91 38 -265
-268 -534 -607 -608 -770 -29 -62 -41 -164 -24 -205 17 -43 66 -68 136 -68
108 0 235 77 470 284 98 87 224 187 264 211 8 5 -29 -41 -82 -101 -54 -60
-119 -140 -145 -177 -42 -61 -47 -74 -47 -124 0 -49 3 -58 27 -76 39 -29 130
-27 200 5 87 41 292 187 513 367 11 9 -15 -22 -58 -69 -171 -188 -181 -326
-24 -324 128 2 296 116 609 415 l157 150 108 -3 c143 -4 144 -11 10 -121 -246
-203 -337 -347 -261 -418 22 -21 35 -24 91 -23 126 3 262 92 575 375 264 238
288 259 256 224 -40 -45 -319 -400 -543 -690 -376 -487 -475 -607 -634 -766
-181 -180 -311 -277 -494 -368 -217 -107 -401 -160 -647 -186 -519 -56 -973
65 -1212 323 -185 201 -253 454 -179 672 16 47 27 87 24 90 -9 9 -42 -40 -65
-98 -19 -49 -22 -75 -22 -177 1 -136 16 -208 70 -324 229 -496 949 -717 1649
-506 496 150 965 486 1446 1035 36 41 128 156 205 255 281 364 635 671 806
700 48 8 68 -6 68 -50 0 -43 -24 -97 -73 -168 l-40 -57 -146 -46 c-227 -72
-287 -111 -279 -180 9 -81 180 -70 363 24 51 26 95 61 165 131 111 113 159
193 167 279 5 52 3 59 -22 84 -93 94 -321 13 -582 -206 -117 -98 -117 -94 6
69 136 182 244 308 376 440 142 142 212 188 313 204 48 7 121 2 167 -14 16 -5
14 -2 -7 18 -57 53 -199 45 -336 -19 -121 -55 -319 -212 -632 -498 -350 -321
-422 -381 -544 -454 -74 -45 -103 -51 -112 -27 -16 40 40 130 172 275 96 106
118 142 110 175 -7 29 -43 42 -131 50 -38 4 -78 9 -87 11 -31 9 -20 41 27 82
42 37 44 41 30 56 -20 20 -74 21 -118 2 -67 -27 -109 -110 -74 -145 10 -11
-13 -37 -118 -138 -234 -226 -429 -373 -497 -376 -29 -2 -33 1 -36 26 -5 41
76 156 265 380 46 54 83 102 83 106 0 13 -27 21 -74 21 -53 0 -64 -7 -294
-193 -323 -262 -465 -357 -511 -342 -44 14 -20 72 92 221 41 54 109 139 151
188 42 48 76 94 76 102 0 11 -16 14 -63 14 -51 0 -76 -6 -123 -30 -65 -32
-190 -124 -299 -219 -288 -250 -435 -337 -483 -289 -86 86 241 542 870 1212
165 176 228 269 213 315 -9 30 -22 26 -30 -8z m-425 -350 c-191 -139 -466
-361 -735 -593 -307 -265 -321 -276 -310 -258 5 8 30 47 56 85 25 39 136 216
246 395 268 437 264 431 288 426 11 -3 74 -8 140 -12 124 -6 271 6 362 30 26
8 54 14 61 15 8 0 -41 -39 -108 -88z m2267 -1066 c-77 -72 -154 -115 -208
-115 -70 0 -58 53 20 89 55 25 232 90 246 90 6 0 -21 -29 -58 -64z"/>
<path d="M19828 5256 c-168 -60 -1061 -1109 -1244 -1461 -32 -61 -27 -75 29
-75 51 0 90 26 302 200 219 179 362 281 455 324 120 56 131 22 32 -91 -101
-115 -190 -230 -213 -275 -14 -27 -19 -54 -17 -86 3 -43 6 -48 41 -66 99 -48
291 44 517 249 81 73 267 225 277 225 8 0 -14 -28 -91 -116 -156 -179 -202
-300 -133 -349 38 -26 132 -19 205 15 79 37 233 142 381 260 63 49 116 88 119
86 4 -5 -11 -27 -254 -346 -216 -284 -469 -645 -777 -1105 -321 -480 -395
-624 -357 -696 18 -33 29 -39 79 -39 41 0 48 4 121 78 82 82 178 208 440 577
246 346 398 549 570 764 85 106 166 208 180 225 13 17 47 58 75 91 28 33 105
123 170 200 127 150 454 483 546 556 30 24 98 78 150 120 189 151 372 261 459
275 22 4 40 10 40 15 0 28 -165 -17 -269 -73 -143 -78 -250 -161 -489 -379
-57 -52 -116 -105 -132 -118 -73 -59 -330 -353 -608 -696 -271 -333 -449 -571
-882 -1180 -119 -167 -196 -267 -248 -323 -34 -37 -69 -40 -64 -7 8 41 345
571 513 805 25 36 127 178 225 315 239 337 462 636 758 1023 56 72 93 129 89
138 -7 20 -86 18 -126 -2 -17 -10 -68 -47 -112 -84 -270 -225 -474 -377 -556
-415 -108 -49 -119 -2 -30 128 70 103 159 214 264 331 27 31 16 41 -47 44 -43
2 -69 -3 -109 -21 -65 -29 -175 -108 -285 -201 -214 -182 -262 -220 -325 -257
-122 -72 -174 -61 -128 26 12 23 59 86 103 141 115 141 137 172 148 215 21 78
-25 116 -128 106 -107 -11 -263 -107 -519 -318 -123 -101 -153 -124 -153 -117
0 9 212 298 324 443 178 229 322 400 564 668 116 130 212 240 212 245 0 5 -10
12 -22 16 -29 7 -26 8 -70 -8z"/>
<path d="M7335 5236 c-162 -40 -348 -201 -527 -457 -45 -63 -51 -68 -135 -102
-48 -19 -169 -69 -267 -111 -147 -62 -182 -73 -194 -63 -8 6 -29 25 -45 40
-42 39 -111 73 -204 99 -105 29 -332 32 -438 4 -295 -76 -504 -225 -576 -414
-45 -120 -21 -274 61 -383 l39 -52 -71 -76 c-81 -87 -140 -171 -168 -237 -40
-93 -18 -87 48 14 28 42 93 119 144 170 l93 92 70 -35 c96 -47 167 -64 323
-76 322 -24 639 62 879 239 114 85 117 88 200 181 104 118 169 222 294 465
100 196 111 212 146 228 234 105 288 137 383 224 80 75 112 129 108 186 -2 35
-8 45 -29 55 -42 20 -80 23 -134 9z m113 -38 c38 -38 -14 -137 -113 -216 -74
-58 -283 -172 -316 -172 -18 0 -8 23 43 98 143 213 240 301 334 302 22 0 45
-5 52 -12z m-722 -554 c-3 -9 -32 -59 -64 -113 -32 -53 -80 -134 -107 -181
-63 -112 -157 -247 -240 -343 -163 -191 -379 -306 -620 -332 -83 -8 -266 10
-346 34 -71 22 -181 89 -176 106 5 15 102 91 214 168 l99 68 55 -25 c248 -109
597 -3 697 213 22 47 24 63 19 133 l-5 78 31 17 c43 22 430 191 441 192 4 1 5
-6 2 -15z m-801 -29 c33 -9 83 -27 112 -41 54 -26 131 -101 116 -114 -4 -4
-105 -52 -223 -107 -118 -55 -269 -130 -334 -166 -66 -37 -125 -67 -132 -67
-17 0 -74 70 -74 92 0 9 -4 20 -10 23 -22 14 -8 -54 20 -98 l29 -47 -22 -15
c-134 -94 -227 -162 -249 -183 -27 -24 -28 -25 -47 -8 -54 49 -78 238 -45 352
31 107 134 227 253 295 62 36 211 86 289 99 76 12 242 4 317 -15z m255 -266
c0 -132 -101 -246 -270 -306 -113 -39 -316 -27 -369 23 -8 7 -13 15 -10 17
111 82 618 342 642 330 4 -2 7 -31 7 -64z"/>
<path d="M11225 5186 c-49 -22 -112 -83 -135 -132 -18 -36 -21 -58 -18 -110 4
-58 7 -68 42 -103 107 -110 396 -121 637 -25 48 19 88 34 91 34 2 0 -51 -55
-117 -122 -66 -68 -192 -213 -279 -323 -171 -214 -316 -384 -362 -425 -242
-213 -381 -286 -524 -278 -91 5 -157 38 -166 83 -6 36 11 78 46 110 55 50 68
143 26 188 -46 49 -142 48 -200 -4 -87 -76 -89 -207 -6 -302 73 -82 177 -113
350 -104 403 23 712 272 1279 1032 65 88 163 211 217 273 116 134 120 139 112
147 -10 10 -40 -2 -68 -28 -73 -67 -188 -144 -295 -197 -131 -64 -183 -84
-288 -106 -312 -65 -473 128 -291 352 18 23 30 44 27 48 -10 10 -46 6 -78 -8z"/>
<path d="M12828 5175 c-177 -49 -371 -206 -575 -465 -103 -131 -187 -214 -255
-254 l-48 -28 -67 18 c-74 19 -132 14 -154 -12 -34 -41 52 -79 140 -61 62 12
71 5 71 -58 0 -42 -2 -45 -118 -206 -136 -187 -156 -307 -64 -377 32 -24 44
-27 111 -27 65 1 86 6 143 33 125 60 424 306 390 319 -8 3 -30 -10 -50 -29
-101 -93 -282 -226 -346 -253 -75 -32 -136 -10 -136 48 0 36 15 67 88 180 35
54 70 117 78 140 29 81 15 170 -36 225 -11 12 -20 25 -20 30 0 6 26 20 58 33
183 74 350 211 509 419 101 132 213 239 288 275 47 23 72 29 129 29 124 1 179
-42 179 -140 0 -106 -94 -189 -261 -229 -62 -15 -84 -16 -145 -7 -40 6 -83 14
-97 18 -22 7 -24 6 -11 -9 33 -41 205 -52 302 -18 121 41 186 89 223 163 53
107 19 197 -93 244 -41 17 -168 17 -233 -1z m-949 -760 c11 -11 6 -15 -31 -20
-25 -4 -54 -5 -64 -3 -25 4 -30 35 -7 41 27 7 86 -4 102 -18z"/>
<path d="M7230 4320 c-128 -31 -311 -140 -405 -242 -105 -113 -145 -247 -94
-312 37 -47 75 -60 169 -60 151 2 322 76 491 213 123 100 123 100 85 37 -122
-202 30 -310 267 -190 44 23 108 64 190 124 19 14 19 14 3 -17 -19 -39 -20
-101 -2 -126 21 -28 74 -38 133 -27 111 20 202 85 537 382 143 126 235 178
244 137 1 -9 -32 -60 -74 -114 -94 -121 -216 -297 -240 -348 -21 -44 -12 -57
39 -57 51 0 90 26 302 200 282 231 463 350 533 350 39 0 25 -33 -46 -116 -181
-210 -232 -287 -232 -352 0 -133 196 -110 407 47 84 62 243 207 243 222 0 20
-22 6 -92 -56 -142 -126 -304 -230 -350 -223 -55 8 -27 64 130 258 47 58 94
124 104 148 40 89 -5 139 -116 129 -110 -10 -271 -108 -537 -328 -72 -60 -133
-109 -136 -109 -7 0 6 19 98 140 134 178 153 227 103 277 -22 22 -32 25 -75
21 -89 -9 -178 -68 -383 -252 -205 -186 -347 -286 -402 -286 -24 0 -28 8 -24
45 4 41 104 179 268 368 91 105 98 127 37 127 -50 0 -100 -23 -162 -76 l-53
-46 0 41 c0 58 -33 81 -117 81 -139 0 -397 -124 -563 -270 -225 -197 -409
-300 -537 -300 -72 0 -100 48 -73 126 9 27 21 33 113 63 182 59 355 157 397
225 28 46 27 106 -3 134 -19 18 -35 22 -83 21 -32 -1 -75 -5 -94 -9z m918 -42
c32 -26 7 -88 -76 -191 -177 -218 -438 -379 -482 -297 -9 17 -6 32 15 77 19
43 57 87 163 192 209 208 316 270 380 219z m-854 6 c22 -9 20 -62 -4 -102 -32
-53 -108 -118 -179 -155 -82 -43 -159 -72 -168 -64 -10 11 133 191 189 239 58
50 117 88 135 88 6 0 18 -3 27 -6z"/>
</g>
</svg>
